<?xml version="1.0" encoding="UTF-8"?>
<svg id="Layer_2" data-name="Layer 2" xmlns="http://www.w3.org/2000/svg" viewBox="0 0 230.63 213.72">
  <defs>
    <style>
      .cls-1 {
        fill: #fff;
      }
    </style>
  </defs>
  <g id="Layer_1-2" data-name="Layer 1">
    <g>
      <path class="cls-1" d="M8.78,92.45l33.18,5.16c5.04,6.25,9.83,12.73,15.21,18.76l-30.12,4.77c-7.3-6.33-12.76-14.34-18.28-22.17v-6.53Z"/>
      <path class="cls-1" d="M229.98,77.36c1.09.94.58,5.76.1,7.07-.2.54-.97.47-1.21,1.09-5.41,13.99-12.97,26.07-24.7,35.67l-31.16-4.26c.39-2.46,2.97-3.51,4.33-5.18,3.72-4.56,7-9.71,10.71-14.31l34.99-4.99-.55-2.72-32.62,4.89c4.09-3.97,5.77-10.12,9.79-14.13-11.31,2.88-22.77,6.26-33.55,10.77-12.12,5.06-23.14,12.51-35.27,17.51l-1.25-.91.46-3.19c7.25-3.43,13.95-7.93,21.1-11.53,18.27-9.21,51.81-21.8,72.11-18.04,1.14.21,6.1,1.71,6.72,2.25Z"/>
      <path class="cls-1" d="M113.73,108.22l1.64,93.53,1.09-93.53c2.42,1.02,7.82,1.16,8.18,4.05.58,4.68-.52,10.15-.6,14.69-.45,27.11,3.62,55.67-6.1,80.91-.77,2.01-1.44,4.16-2.86,5.84-.65-2.35-2.37-3.91-3.24-5.99-7.58-18.07-5.5-50.17-5.75-70.39-.11-8.87.16-17.74-.01-26.61l7.64-2.51Z"/>
      <path class="cls-1" d="M124.07,1.64l-7.07,1.35c-14.41,3.87-20.85,22.24-8.72,32.65,7.36,6.32,23.16,6.47,27.22-3.55,1-.12.47,1.13.29,1.65-4.95,13.66-23.47,17.96-35.05,10-4.81-3.31-8.38-7.92-9.68-13.7-4.64-20.63,13.64-35.05,33.02-28.39Z"/>
      <path class="cls-1" d="M78.39,135.42l-8.32,15.06-20.22,11.1c-.55.54-.59.4-1.1-.01-1.65-1.32-3.66-7.4-4.4-9.57.1-2.72,13.67-12.68,16.64-13.6,5.06-1.57,12.12-1.31,17.41-2.98Z"/>
      <path class="cls-1" d="M183.14,159.14c-.27.43-1.66.87-1.45,2.36-.58.16-1.08-.07-1.62-.23-2.61-.81-16.27-8.39-18.68-10.17-3.78-2.8-6.4-11.6-9.04-15.67,5.13,1.8,11.91,1.39,16.87,2.98,1.7.55,6.42,3.75,8.1,4.95,1.29.92,8.45,6.78,8.66,7.67-.31,2.81-1.34,5.74-2.84,8.12Z"/>
      <path class="cls-1" d="M201.83,123.45l-9.42,6.07c-11.34,5.04-23.85,4.03-35.71,1.53,5.23-3.58,10.1-7.58,14.38-12.28l30.75,4.68Z"/>
      <path class="cls-1" d="M184.43,98.44c-5.14,5.6-9.27,12.15-14.65,17.64l-27.22-3.51,8.74-7.3,3.87-2.11,29.27-4.72Z"/>
      <path class="cls-1" d="M29.99,123.98l.27-1.08,29.27-4.27c3.7,4.96,8.58,7.94,13.41,11.61-9.59,3.96-23.41,3.89-32.99-.17-3.48-1.47-6.67-4.27-9.95-6.1Z"/>
      <path class="cls-1" d="M87.09,111.49l-.27,1.08-25.96,3.14c-1.45-.37-3.68-3.25-4.75-4.52-3.36-3.95-6.85-8.48-9.8-12.76l30.6,5.02c3.23,2.91,6.35,5.91,10.19,8.04Z"/>
      <path class="cls-1" d="M101.23,135.42c-1.41,3.92-1.45,8.74-2.77,12.62-1.58,4.66-6.42,12.82-9.18,17.15-3.08,4.85-4.6,8.9-11.44,9.38l1.91-17.93,16.56-17.16,4.91-4.06Z"/>
      <path class="cls-1" d="M151.43,167.35c.07.14.81.13.9.52.44,1.87-.47,4.6.55,6.69-9.26-.05-12.28-9.54-15.78-16.45-.18-.35-.9-.4-1.23-1.08-3.17-6.51-5.3-13.82-5.82-21.07l20.38,20.67c1.16,2.74.19,8.98,1,10.72Z"/>
      <path class="cls-1" d="M151.47,140.11c.1.17.69.3,1.03.89,2.89,5.08,4.5,11.06,8.54,15.36l-3.5.24c-5.11.15-6.6-3.38-9.53-6.24-5.47-5.35-12.65-11.59-17.42-17.38-1.55-1.88-2.68-3.7-2.16-6.26,2.71,1.06,4.96,2.87,7.62,4.07,3.97,1.78,8.26,2.85,12.48,3.84,1.26,1.67,1.88,3.7,2.95,5.49Z"/>
      <path class="cls-1" d="M69.69,157.16c3.19-7.88,8.76-14.22,11.69-22.29,6.86-2.07,13.88-4.03,19.84-8.16,1.05,5.45-1.32,5.33-4.02,8.21-5.54,5.93-10.82,11.46-16.67,17.05-.96.92-1.59,2.55-2.65,3.33-2.09,1.53-5.76.77-8.19,1.86Z"/>
      <path class="cls-1" d="M100.68,119.1l-9.96,4.98-13.69,5.31c-1.83-.05-13.83-9.47-13.87-11.11l26.93-3.59,10.6,4.41Z"/>
      <path class="cls-1" d="M167.03,118.56c-3.56,4.57-8.3,7.95-13.3,10.82-8.33-2.1-15.96-6.34-23.68-10.01l10.04-4.64,26.93,3.83Z"/>
      <path class="cls-1" d="M125.15,93.53c-.57.64-8.54-4.77-10.09-4.87-2.49-.16-9.69,5.78-10.57,4.87-1.66-4.95,4.29-13.42,9.01-14.11,7.55-1.1,12.88,7.23,11.65,14.11Z"/>
      <polygon class="cls-1" points="124.61 106.59 115.12 102.85 105.04 106.05 105.04 98.43 115.09 92.64 124.61 98.7 124.61 106.59"/>
      <path class="cls-1" d="M75.07,174.5c-4.79.48-9.26-1.36-13.53-3.21l6.6-11.88,8.62-1.16-1.69,16.25Z"/>
      <path class="cls-1" d="M162.6,159.42l6.6,11.61c-4.36,2.25-9.12,3.8-14.13,3.53l-1.08-16.32,8.61,1.17Z"/>
      <path class="cls-1" d="M103.4,83.2c-10.42-9.72-22.94-18.09-35.78-24.33-.74-.36-1.5.35-1.19-1.23,12.08,2.44,24.35,8.36,32.29,18.01.71.86,5.15,7.02,4.68,7.55Z"/>
      <path class="cls-1" d="M162.68,58.2l-19.75,11.51-8.78,6.44-7.9,7.05c7.28-13.49,21.15-22.75,36.43-25Z"/>
      <path class="cls-1" d="M167.22,163.51c-1.22-2.05-2.56-4.86-3.56-7.06-.2-.44-.93-1.14-.17-1.47l16.03,8.97c-2.22,2.76-4.99,4.32-7.88,6.24-.63-.05-2.5-4.73-3.07-5.63-.36-.56-1.2-.78-1.36-1.05Z"/>
      <polygon class="cls-1" points="67.51 154.99 58.78 170.18 50.66 164.77 51.03 163.69 67.51 154.99"/>
      <path class="cls-1" d="M113.04,65.38c9.56-2.19,8.99,10.2,1.68,9.56-5.85-.51-6.36-8.48-1.68-9.56Z"/>
      <path class="cls-1" d="M.65,76.99c-1.09.94-.58,5.76-.1,7.07.2.54.97.47,1.21,1.09,5.41,13.99,12.97,26.07,24.7,35.67l31.16-4.26c-.39-2.46-2.97-3.51-4.33-5.18-3.72-4.56-7-9.71-10.71-14.31l-34.99-4.99.55-2.72,32.62,4.89c-4.09-3.97-5.77-10.12-9.79-14.13,11.31,2.88,22.77,6.26,33.55,10.77,12.12,5.06,23.14,12.51,35.27,17.51l1.25-.91-.46-3.19c-7.25-3.43-13.95-7.93-21.1-11.53-18.27-9.21-51.81-21.8-72.11-18.04-1.14.21-6.1,1.71-6.72,2.25Z"/>
    </g>
  </g>
</svg>